<?xml version="1.0" encoding="UTF-8"?>
<svg version="1.1" xmlns="http://www.w3.org/2000/svg" width="1280" height="854">
<path d="M0 0 C422.4 0 844.8 0 1280 0 C1280 281.82 1280 563.64 1280 854 C857.6 854 435.2 854 0 854 C0 572.18 0 290.36 0 0 Z " fill="#006633" transform="translate(0,0)"/>
<path d="M0 0 C211.2 0 422.4 0 640 0 C640 281.82 640 563.64 640 854 C428.8 854 217.6 854 0 854 C0 783.38 0 712.76 0 640 C8.91 639.34 17.82 638.68 27 638 C50.9547103 634.13999929 73.20813753 627.66991819 95 617 C95.65258789 616.68063477 96.30517578 616.36126953 96.97753906 616.03222656 C132.21081913 598.53107635 161.7603139 570.63778816 182 537 C181.443125 537.6290625 180.88625 538.258125 180.3125 538.90625 C177.89254709 541.62052151 175.45034609 544.31314898 173 547 C172.4121875 547.65613281 171.824375 548.31226563 171.21875 548.98828125 C145.34504234 576.4496937 102.90634527 595.89497184 65.18701172 597.12426758 C61.4160193 597.20465432 57.64580096 597.23090214 53.87402344 597.24023438 C51.532831 597.24986495 49.19254719 597.28093173 46.8515625 597.3125 C30.39710198 597.43129538 16.09728844 594.02432211 0 590 C0 515.75 0 441.5 0 365 C5.62358277 370.62358277 5.62358277 370.62358277 7.875 373.79296875 C8.37829834 374.49607178 8.88159668 375.1991748 9.40014648 375.92358398 C9.92809814 376.67067627 10.4560498 377.41776855 11 378.1875 C12.15746377 379.80735477 13.31501836 381.42714465 14.47265625 383.046875 C15.05934082 383.87123047 15.64602539 384.69558594 16.25048828 385.54492188 C18.43807459 388.61474715 20.63911641 391.67466021 22.84521484 394.73120117 C23.90615637 396.20126075 24.96507986 397.67277887 26.02197266 399.14575195 C28.9482964 403.21246166 31.92474771 407.23231057 34.96484375 411.21484375 C35.61718994 412.0766626 36.26953613 412.93848145 36.94165039 413.82641602 C38.20756225 415.49516888 39.48375476 417.15618433 40.77124023 418.80834961 C41.33915283 419.55995361 41.90706543 420.31155762 42.4921875 421.0859375 C43.00120605 421.7464209 43.51022461 422.4069043 44.03466797 423.08740234 C45 425 45 425 44.79833984 427.02734375 C43.96783003 429.07949031 43.02628784 430.68023148 41.734375 432.4765625 C41.02788818 433.46825439 41.02788818 433.46825439 40.30712891 434.47998047 C39.79327637 435.18783691 39.27942383 435.89569336 38.75 436.625 C38.2142334 437.37281738 37.6784668 438.12063477 37.12646484 438.89111328 C35.42338867 441.26493337 33.71182255 443.63248219 32 446 C30.93437926 447.4840042 29.86926463 448.96837197 28.8046875 450.453125 C22.49789822 459.23276552 16.1131613 467.95340837 9.66845703 476.63232422 C6.66475215 480.68842205 3.75461058 484.77042679 1 489 C1.8809861 488.63274559 1.8809861 488.63274559 2.7797699 488.2580719 C9.29707701 485.59016724 15.8840055 483.3333768 22.59765625 481.21484375 C23.67196396 480.87248184 24.74627167 480.53011993 25.85313416 480.17738342 C29.25516605 479.09395867 32.65876324 478.0155553 36.0625 476.9375 C39.46945645 475.85479613 42.87608113 474.77105532 46.28257751 473.68690491 C48.39255671 473.01577511 50.50285889 472.34565955 52.61354065 471.67674255 C53.58162155 471.36954788 54.54970245 471.06235321 55.54711914 470.74584961 C56.46681992 470.45405319 57.38652069 470.16225677 58.33409119 469.86161804 C61.62667709 468.79745883 64.89799524 467.67545181 68.16384888 466.53204346 C70.89014267 465.74207211 72.4217324 465.79440026 75 467 C76.77831741 468.87395801 78.20510981 470.60227716 79.6875 472.6875 C80.11828857 473.27055908 80.54907715 473.85361816 80.99291992 474.4543457 C82.34401991 476.29224449 83.67387824 478.14401936 85 480 C85.80454943 481.114683 86.60923304 482.22926917 87.4140625 483.34375 C89.0524138 485.62230724 90.67949992 487.90848895 92.30078125 490.19921875 C95.83327989 495.18588755 99.42245476 500.13155385 103.00708008 505.08081055 C108.03619886 512.03199843 113.012736 519.0178304 118 526 C118.33 500.92 118.66 475.84 119 450 C127.188125 447.31875 135.37625 444.6375 143.8125 441.875 C147.62518433 440.62565674 147.62518433 440.62565674 151.51489258 439.35107422 C164.32023152 435.15922306 177.13970121 431.0202536 190 427 C182.19670297 423.71534758 174.25257948 421.05187614 166.1875 418.48828125 C164.88367364 418.0707694 163.57996478 417.65289047 162.27636719 417.23466492 C158.87847329 416.14537328 155.4793191 415.06007479 152.07977295 413.97595215 C146.6115757 412.23158519 141.14508041 410.4819043 135.67910767 408.73058128 C133.77510478 408.12131459 131.87034502 407.51441482 129.96557617 406.907547 C128.24238159 406.35643501 128.24238159 406.35643501 126.484375 405.79418945 C125.47084961 405.47094193 124.45732422 405.1476944 123.41308594 404.81465149 C121 404 121 404 119 403 C118.67 378.25 118.34 353.5 118 328 C108.68918323 340.37311374 108.68918323 340.37311374 99.5625 352.875 C98.4791844 354.3802211 97.39585048 355.88542901 96.3125 357.390625 C95.77109375 358.14408203 95.2296875 358.89753906 94.671875 359.67382812 C91.80642582 363.66068558 88.93482361 367.64309385 86.0625 371.625 C85.54308838 372.34671387 85.02367676 373.06842773 84.48852539 373.81201172 C81.04754861 378.58360298 77.54557658 383.30563456 74 388 C66.50939942 386.02184844 59.11911859 383.82655005 51.75 381.4375 C50.70021973 381.09887939 49.65043945 380.76025879 48.56884766 380.41137695 C46.28358961 379.67415942 43.99860643 378.93608943 41.71386719 378.19726562 C38.42417881 377.13674552 35.13244564 376.0830714 31.83935547 375.03318787 C29.03731429 374.13955966 26.23619304 373.24306893 23.43518066 372.34622192 C22.07379829 371.91093368 20.71206866 371.47672987 19.34997559 371.04367065 C17.42759271 370.43210304 15.50673931 369.81573417 13.5859375 369.19921875 C12.4829834 368.84690186 11.3800293 368.49458496 10.24365234 368.1315918 C6.76730166 366.91882005 3.3841304 365.4503416 0 364 C0 331 0 298 0 264 C5.98681547 261.7549442 11.1666651 260.12925202 17.3125 258.875 C18.09044922 258.70613281 18.86839844 258.53726562 19.66992188 258.36328125 C38.95648191 254.34458868 59.6080743 254.95377485 79 258 C79.79470703 258.12358887 80.58941406 258.24717773 81.40820312 258.37451172 C100.24645073 261.43146575 117.26419412 267.93190216 134 277 C135.06863281 277.57621094 136.13726563 278.15242188 137.23828125 278.74609375 C153.63627187 287.9553414 168.92750015 300.56410071 181 315 C174.04984371 303.51613248 166.13645368 293.05477666 157.0078125 283.21875 C155.60526218 281.66885004 154.26237613 280.06378509 152.96875 278.421875 C151.2116575 276.26037233 149.49725469 274.53811246 147.375 272.75 C145.15593566 270.86359247 142.97228836 268.97380266 140.85546875 266.97265625 C122.91793159 250.07409057 100.75230984 237.6824908 77.91650391 228.75927734 C76.35150717 228.13925953 74.80367141 227.47607293 73.26171875 226.80078125 C61.08296416 221.47914928 47.73341036 218.94460356 34.6875 216.8125 C33.28745728 216.58046875 33.28745728 216.58046875 31.85913086 216.34375 C21.25715528 214.70706613 10.74042983 213.97640271 0 213 C0 142.71 0 72.42 0 0 Z " fill="#FEFEFE" transform="translate(640,0)"/>
<path d="M0 0 C2.5701825 2.28979896 5.08262817 4.62868346 7.57861328 6.99951172 C9.47509186 8.77011783 11.36109522 10.43096341 13.36376953 12.06982422 C15.62172693 13.96429052 17.520915 15.73838849 19.41455078 17.97216797 C20.00107422 18.66310547 20.58759766 19.35404297 21.19189453 20.06591797 C21.86349609 20.85998047 22.53509766 21.65404297 23.22705078 22.47216797 C24.05333984 23.41060547 24.87962891 24.34904297 25.73095703 25.31591797 C32.94932836 33.57199528 39.16646471 42.34025974 45.22705078 51.47216797 C44.89705078 52.13216797 44.56705078 52.79216797 44.22705078 53.47216797 C43.41623047 52.56595703 42.60541016 51.65974609 41.77001953 50.72607422 C35.04657337 43.29398195 28.27294545 36.50107809 20.22705078 30.47216797 C19.18291016 29.67423828 18.13876953 28.87630859 17.06298828 28.05419922 C3.57500458 17.95001539 -10.97834947 10.27576509 -26.77294922 4.47216797 C-27.65466797 4.10607422 -28.53638672 3.73998047 -29.44482422 3.36279297 C-62.89797365 -10.14313693 -101.86993343 -7.00358598 -135.77294922 1.47216797 C-136.10294922 34.47216797 -136.43294922 67.47216797 -136.77294922 101.47216797 C-134.46294922 102.13216797 -132.15294922 102.79216797 -129.77294922 103.47216797 C-128.16258415 103.96691638 -126.554514 104.46923192 -124.94946289 104.98095703 C-124.06711472 105.2617511 -123.18476654 105.54254517 -122.27568054 105.83184814 C-121.34020889 106.13080994 -120.40473724 106.42977173 -119.44091797 106.73779297 C-118.45029861 107.05367371 -117.45967926 107.36955444 -116.43904114 107.69500732 C-114.34355171 108.36352872 -112.2482335 109.03258698 -110.15307617 109.70214844 C-107.00931023 110.70655726 -103.86480622 111.70862812 -100.72021484 112.71044922 C-90.49269368 115.97383624 -80.27488196 119.25569504 -70.11772156 122.73321533 C-66.52648287 124.02375387 -66.52648287 124.02375387 -62.77294922 124.47216797 C-61.47196593 123.05881825 -61.47196593 123.05881825 -60.19091797 121.16748047 C-59.67795166 120.44826416 -59.16498535 119.72904785 -58.63647461 118.98803711 C-57.80684204 117.80455688 -57.80684204 117.80455688 -56.96044922 116.59716797 C-55.77569109 114.93170542 -54.59079144 113.26634353 -53.40576172 111.60107422 C-52.49745605 110.31740967 -52.49745605 110.31740967 -51.57080078 109.0078125 C-48.84782851 105.16740104 -46.09300964 101.35028311 -43.33544922 97.53466797 C-42.54605957 96.44001221 -42.54605957 96.44001221 -41.74072266 95.32324219 C-37.02372408 88.79212301 -32.24428017 82.30760418 -27.44116211 75.83959961 C-25.02713799 72.57966253 -22.64562332 69.32610692 -20.43310547 65.92529297 C-19.88525391 65.11576172 -19.33740234 64.30623047 -18.77294922 63.47216797 C-18.44294922 63.47216797 -18.11294922 63.47216797 -17.77294922 63.47216797 C-17.77294922 88.88216797 -17.77294922 114.29216797 -17.77294922 140.47216797 C-14.14294922 141.46216797 -10.51294922 142.45216797 -6.77294922 143.47216797 C-4.88530486 144.0379779 -3.00117882 144.61603836 -1.12475586 145.21801758 C-0.1632814 145.52521225 0.79819305 145.83240692 1.7888031 146.14891052 C2.78807327 146.47085892 3.78734344 146.79280731 4.81689453 147.12451172 C5.88267227 147.4659169 6.94845001 147.80732208 8.04652405 148.15907288 C10.28470784 148.87650709 12.52253223 149.59506344 14.76000977 150.31469727 C18.15125413 151.40539149 21.5435372 152.49280178 24.93603516 153.57958984 C27.12554963 154.28187258 29.31500473 154.98434044 31.50439453 155.68701172 C32.50164047 156.00693588 33.49888641 156.32686005 34.52635193 156.65647888 C41.44241886 158.88156725 48.33873028 161.16266667 55.22705078 163.47216797 C52.89382082 165.80539793 51.28137792 166.27314597 48.1574707 167.28808594 C47.0984404 167.63539764 46.0394101 167.98270935 44.94828796 168.34054565 C43.79633438 168.71140289 42.6443808 169.08226013 41.45751953 169.46435547 C40.27039871 169.85156769 39.08327789 170.23877991 37.86018372 170.63772583 C34.69203649 171.66970939 31.52223579 172.69628403 28.3515625 173.72045898 C25.17368206 174.7486439 21.99840187 175.78476474 18.82275391 176.81982422 C11.96207574 179.0516749 5.10105795 181.28165247 -1.77294922 183.47216797 C-2.96399261 183.85310608 -4.15503601 184.23404419 -5.38217163 184.62652588 C-6.54713165 184.99340515 -7.71209167 185.36028442 -8.91235352 185.73828125 C-9.96472702 186.07111115 -11.01710052 186.40394104 -12.10136414 186.74685669 C-14.77294922 187.47216797 -14.77294922 187.47216797 -17.77294922 187.47216797 C-17.77294922 212.88216797 -17.77294922 238.29216797 -17.77294922 264.47216797 C-23.39199684 258.85312035 -23.39199684 258.85312035 -25.39404297 255.93310547 C-25.84706787 255.28027588 -26.30009277 254.62744629 -26.7668457 253.95483398 C-27.24323486 253.2593042 -27.71962402 252.56377441 -28.21044922 251.84716797 C-33.17983283 244.6985715 -38.27103352 237.65492108 -43.46972656 230.67138672 C-46.50132512 226.5900982 -49.47913474 222.48352395 -52.37451172 218.30419922 C-52.95595947 217.47267334 -53.53740723 216.64114746 -54.13647461 215.78442383 C-55.24388657 214.19579132 -56.3400451 212.59923629 -57.4230957 210.99389648 C-57.92139893 210.28289795 -58.41970215 209.57189941 -58.93310547 208.83935547 C-59.36244385 208.2114209 -59.79178223 207.58348633 -60.23413086 206.93652344 C-62.34780922 204.92512524 -63.88888928 204.80470716 -66.77294922 204.47216797 C-69.4452626 204.96764941 -69.4452626 204.96764941 -72.19897461 205.94750977 C-73.79202171 206.46881721 -73.79202171 206.46881721 -75.41725159 207.00065613 C-76.55685837 207.38699722 -77.69646515 207.77333832 -78.87060547 208.17138672 C-80.05585312 208.56284378 -81.24110077 208.95430084 -82.46226501 209.35762024 C-85.61538957 210.40140918 -88.76472737 211.4553772 -91.91271973 212.51446533 C-95.07618097 213.57601536 -98.24411036 214.62393387 -101.41162109 215.67333984 C-106.09037487 217.22555895 -110.76712029 218.78350296 -115.44116211 220.34985352 C-116.4860379 220.6993808 -117.5309137 221.04890808 -118.60745239 221.4090271 C-120.80040371 222.14553587 -122.99159837 222.88728797 -125.18136597 223.63320923 C-126.80535812 224.18348282 -126.80535812 224.18348282 -128.4621582 224.74487305 C-129.43515366 225.07675125 -130.40814911 225.40862946 -131.41062927 225.75056458 C-133.77294922 226.47216797 -133.77294922 226.47216797 -135.77294922 226.47216797 C-134.50719171 223.82818135 -133.13619635 221.42349219 -131.44482422 219.03076172 C-130.98213135 218.37470947 -130.51943848 217.71865723 -130.04272461 217.04272461 C-129.29043579 215.98686157 -129.29043579 215.98686157 -128.52294922 214.90966797 C-127.99499756 214.16515381 -127.4670459 213.42063965 -126.9230957 212.65356445 C-122.38054669 206.27247535 -117.7427724 199.96336263 -113.08349609 193.66723633 C-108.86162603 187.96056595 -104.67833075 182.22743261 -100.52294922 176.47216797 C-99.97388916 175.71234619 -99.4248291 174.95252441 -98.85913086 174.16967773 C-94.62678149 169.21608872 -94.62678149 169.21608872 -92.99267578 163.515625 C-93.8377343 161.30250241 -94.85099908 159.68189507 -96.25732422 157.77685547 C-96.77351318 157.07052979 -97.28970215 156.3642041 -97.8215332 155.63647461 C-98.38300049 154.88100342 -98.94446777 154.12553223 -99.52294922 153.34716797 C-100.71715519 151.71840508 -101.91116015 150.0894948 -103.10498047 148.46044922 C-103.71680176 147.62980957 -104.32862305 146.79916992 -104.95898438 145.94335938 C-107.20100257 142.88902449 -109.41476579 139.81502249 -111.6262207 136.73852539 C-117.44896286 128.63837229 -123.34523143 120.59393803 -129.28051758 112.57592773 C-129.83876221 111.82110107 -130.39700684 111.06627441 -130.97216797 110.28857422 C-131.46547607 109.622854 -131.95878418 108.95713379 -132.46704102 108.27124023 C-133.6081369 106.69922012 -134.69543826 105.08843441 -135.77294922 103.47216797 C-136.10294922 177.39216797 -136.43294922 251.31216797 -136.77294922 327.47216797 C-132.81294922 328.13216797 -128.85294922 328.79216797 -124.77294922 329.47216797 C-121.49028786 330.18982092 -118.23748176 330.98158492 -114.97607422 331.78857422 C-108.59157005 333.15112084 -102.30122359 333.63338186 -95.78466797 333.67529297 C-95.04842697 333.68244324 -94.31218597 333.68959351 -93.55363464 333.69696045 C-70.97424847 334.04026081 -70.97424847 334.04026081 -48.77294922 330.47216797 C-47.8084082 330.22466797 -46.84386719 329.97716797 -45.85009766 329.72216797 C-11.05149123 320.48530285 17.14758568 303.15034709 42.22705078 277.47216797 C43.56038411 276.13883464 44.89371745 274.8055013 46.22705078 273.47216797 C44.63716901 278.4237877 41.72951206 282.09219106 38.60205078 286.15966797 C37.78909546 287.22749512 37.78909546 287.22749512 36.9597168 288.31689453 C35.38891425 290.37394789 33.80938533 292.42397905 32.22705078 294.47216797 C31.50646484 295.41189453 30.78587891 296.35162109 30.04345703 297.31982422 C3.61939611 331.10526594 -31.95693034 354.5053264 -72.59716797 367.75830078 C-74.45470066 368.36775159 -76.30248021 369.0067957 -78.14794922 369.65185547 C-84.93390955 371.93151402 -91.80911878 373.35615928 -98.83544922 374.65966797 C-100.18292236 374.91043091 -100.18292236 374.91043091 -101.55761719 375.16625977 C-113.57979846 377.28570153 -125.58779981 377.71189249 -137.77294922 377.72216797 C-138.86260483 377.72318008 -138.86260483 377.72318008 -139.97427368 377.72421265 C-151.82034347 377.70681754 -163.1652329 376.90776863 -174.77294922 374.47216797 C-175.64387207 374.30056152 -176.51479492 374.12895508 -177.41210938 373.95214844 C-234.03780719 362.7233418 -282.25783816 329.93345162 -314.77294922 282.47216797 C-338.32372729 246.71332161 -350.28592305 205.83547 -350.08544922 163.15966797 C-350.08296173 162.30643951 -350.08047424 161.45321106 -350.07791138 160.5741272 C-349.88817947 118.3871138 -337.07409224 75.67096246 -311.77294922 41.47216797 C-311.38929199 40.95009766 -311.00563477 40.42802734 -310.61035156 39.89013672 C-305.65627605 33.1825973 -300.4579952 26.80808467 -294.78076172 20.69091797 C-293.37698035 19.13965763 -292.03287985 17.53323159 -290.73779297 15.89013672 C-288.99844751 13.74966984 -287.31338988 12.05150148 -285.21044922 10.28466797 C-282.8871863 8.31031999 -280.61618881 6.32316798 -278.40576172 4.22216797 C-260.65401206 -12.61231803 -238.56458695 -25.75566449 -215.77294922 -34.52783203 C-214.63937988 -34.96603271 -214.63937988 -34.96603271 -213.48291016 -35.41308594 C-142.57403159 -62.40337163 -58.05503138 -50.02869545 0 0 Z " fill="#D11034" transform="translate(776.77294921875,262.52783203125)"/>
<path d="M0 0 C0 33 0 66 0 100 C2.31 100.66 4.62 101.32 7 102 C8.61036507 102.49474841 10.21843522 102.99706395 11.82348633 103.50878906 C13.14700859 103.92998016 13.14700859 103.92998016 14.49726868 104.35968018 C15.43274033 104.65864197 16.36821198 104.95760376 17.33203125 105.265625 C18.3226506 105.58150574 19.31326996 105.89738647 20.33390808 106.22283936 C22.4293975 106.89136075 24.52471572 107.56041901 26.61987305 108.22998047 C29.76363899 109.23438929 32.90814299 110.23646015 36.05273438 111.23828125 C46.28025554 114.50166827 56.49806726 117.78352707 66.65522766 121.26104736 C70.24646634 122.5515859 70.24646634 122.5515859 74 123 C75.30098329 121.58665028 75.30098329 121.58665028 76.58203125 119.6953125 C77.09499756 118.97609619 77.60796387 118.25687988 78.13647461 117.51586914 C78.68956299 116.72688232 79.24265137 115.93789551 79.8125 115.125 C80.99725813 113.45953745 82.18215778 111.79417557 83.3671875 110.12890625 C84.27549316 108.8452417 84.27549316 108.8452417 85.20214844 107.53564453 C87.92512071 103.69523307 90.67993958 99.87811514 93.4375 96.0625 C93.96375977 95.33272949 94.49001953 94.60295898 95.03222656 93.85107422 C99.74922514 87.31995505 104.52866905 80.83543621 109.33178711 74.36743164 C111.74581122 71.10749456 114.1273259 67.85393896 116.33984375 64.453125 C117.16162109 63.23882812 117.16162109 63.23882812 118 62 C118.33 62 118.66 62 119 62 C119 87.41 119 112.82 119 139 C122.63 139.99 126.26 140.98 130 142 C131.88764436 142.56580993 133.7717704 143.14387039 135.64819336 143.74584961 C136.60966782 144.05304428 137.57114227 144.36023895 138.56175232 144.67674255 C139.56102249 144.99869095 140.56029266 145.32063934 141.58984375 145.65234375 C142.65562149 145.99374893 143.72139923 146.33515411 144.81947327 146.68690491 C147.05765706 147.40433912 149.29548145 148.12289547 151.53295898 148.8425293 C154.92420335 149.93322352 158.31648642 151.02063382 161.70898438 152.10742188 C163.89849884 152.80970461 166.08795394 153.51217247 168.27734375 154.21484375 C169.27458969 154.53476791 170.27183563 154.85469208 171.29930115 155.18431091 C178.21536808 157.40939928 185.1116795 159.6904987 192 162 C189.66677004 164.33322996 188.05432714 164.800978 184.93041992 165.81591797 C183.87138962 166.16322968 182.81235931 166.51054138 181.72123718 166.86837769 C180.5692836 167.23923492 179.41733002 167.61009216 178.23046875 167.9921875 C177.04334793 168.37939972 175.85622711 168.76661194 174.63313293 169.16555786 C171.46498571 170.19754142 168.29518501 171.22411606 165.12451172 172.24829102 C161.94663128 173.27647593 158.77135109 174.31259677 155.59570312 175.34765625 C148.73502496 177.57950693 141.87400717 179.8094845 135 182 C133.8089566 182.38093811 132.61791321 182.76187622 131.39077759 183.15435791 C130.22581757 183.52123718 129.06085754 183.88811646 127.8605957 184.26611328 C126.28203545 184.76535812 126.28203545 184.76535812 124.67158508 185.27468872 C122 186 122 186 119 186 C119 211.41 119 236.82 119 263 C113.38095238 257.38095238 113.38095238 257.38095238 111.37890625 254.4609375 C110.92588135 253.80810791 110.47285645 253.15527832 110.00610352 252.48266602 C109.52971436 251.78713623 109.0533252 251.09160645 108.5625 250.375 C103.59311639 243.22640353 98.5019157 236.18275312 93.30322266 229.19921875 C90.2716241 225.11793024 87.29381448 221.01135598 84.3984375 216.83203125 C83.81698975 216.00050537 83.23554199 215.16897949 82.63647461 214.31225586 C81.52906265 212.72362335 80.43290412 211.12706832 79.34985352 209.52172852 C78.85155029 208.81072998 78.35324707 208.09973145 77.83984375 207.3671875 C77.41050537 206.73925293 76.98116699 206.11131836 76.53881836 205.46435547 C74.42514 203.45295727 72.88405994 203.33253919 70 203 C67.32768662 203.49548144 67.32768662 203.49548144 64.57397461 204.4753418 C62.98092751 204.99664925 62.98092751 204.99664925 61.35569763 205.52848816 C60.21609085 205.91482925 59.07648407 206.30117035 57.90234375 206.69921875 C56.7170961 207.09067581 55.53184845 207.48213287 54.3106842 207.88545227 C51.15755965 208.92924121 48.00822185 209.98320923 44.86022949 211.04229736 C41.69676825 212.10384739 38.52883886 213.1517659 35.36132812 214.20117188 C30.68257435 215.75339098 26.00582892 217.31133499 21.33178711 218.87768555 C20.28691132 219.22721283 19.24203552 219.57674011 18.16549683 219.93685913 C15.97254551 220.6733679 13.78135085 221.41512 11.59158325 222.16104126 C9.96759109 222.71131485 9.96759109 222.71131485 8.31079102 223.27270508 C7.33779556 223.60458328 6.36480011 223.93646149 5.36231995 224.27839661 C3 225 3 225 1 225 C2.26575751 222.35601338 3.63675287 219.95132423 5.328125 217.55859375 C5.79081787 216.9025415 6.25351074 216.24648926 6.73022461 215.57055664 C7.23175049 214.86664795 7.73327637 214.16273926 8.25 213.4375 C8.77795166 212.69298584 9.30590332 211.94847168 9.84985352 211.18139648 C14.39240253 204.80030738 19.03017682 198.49119466 23.68945312 192.19506836 C27.91132319 186.48839799 32.09461847 180.75526464 36.25 175 C36.79906006 174.24017822 37.34812012 173.48035645 37.91381836 172.69750977 C42.14616773 167.74392075 42.14616773 167.74392075 43.78027344 162.04345703 C42.93521492 159.83033444 41.92195014 158.2097271 40.515625 156.3046875 C39.99943604 155.59836182 39.48324707 154.89203613 38.95141602 154.16430664 C38.38994873 153.40883545 37.82848145 152.65336426 37.25 151.875 C36.05579402 150.24623712 34.86178907 148.61732683 33.66796875 146.98828125 C33.05614746 146.1576416 32.44432617 145.32700195 31.81396484 144.47119141 C29.57194665 141.41685652 27.35818343 138.34285452 25.14672852 135.26635742 C19.32398636 127.16620432 13.42771779 119.12177006 7.49243164 111.10375977 C6.93418701 110.34893311 6.37594238 109.59410645 5.80078125 108.81640625 C5.30747314 108.15068604 4.81416504 107.48496582 4.3059082 106.79907227 C3.16481231 105.22705215 2.07751096 103.61626644 1 102 C0.67 175.59 0.34 249.18 0 325 C-10.14712825 322.74508261 -10.14712825 322.74508261 -14.8203125 320.53125 C-15.84310303 320.0475293 -16.86589355 319.56380859 -17.91967773 319.06542969 C-18.97743408 318.54883789 -20.03519043 318.03224609 -21.125 317.5 C-22.227229 316.96536133 -23.32945801 316.43072266 -24.46508789 315.87988281 C-41.19056516 307.60978401 -55.35099919 296.67568898 -69 284 C-69.64324219 283.4225 -70.28648437 282.845 -70.94921875 282.25 C-93.98592174 260.61385128 -109.4747708 228.52824972 -116 198 C-116.15243164 197.31824707 -116.30486328 196.63649414 -116.46191406 195.93408203 C-125.52435403 154.11571703 -116.19396714 107.78313976 -93.58447266 71.74365234 C-76.02859588 44.91274809 -35.62329741 0 0 0 Z " fill="#006533" transform="translate(640,264)"/>
<path d="M0 0 C0.33 0 0.66 0 1 0 C1 25.41 1 50.82 1 77 C4.63 77.99 8.26 78.98 12 80 C13.88764436 80.56580993 15.7717704 81.14387039 17.64819336 81.74584961 C18.60966782 82.05304428 19.57114227 82.36023895 20.56175232 82.67674255 C21.56102249 82.99869095 22.56029266 83.32063934 23.58984375 83.65234375 C24.65562149 83.99374893 25.72139923 84.33515411 26.81947327 84.68690491 C29.05765706 85.40433912 31.29548145 86.12289547 33.53295898 86.8425293 C36.92420335 87.93322352 40.31648642 89.02063382 43.70898438 90.10742188 C45.89849884 90.80970461 48.08795394 91.51217247 50.27734375 92.21484375 C51.27458969 92.53476791 52.27183563 92.85469208 53.29930115 93.18431091 C60.21536808 95.40939928 67.1116795 97.6904987 74 100 C71.66677004 102.33322996 70.05432714 102.800978 66.93041992 103.81591797 C65.87138962 104.16322968 64.81235931 104.51054138 63.72123718 104.86837769 C62.5692836 105.23923492 61.41733002 105.61009216 60.23046875 105.9921875 C58.44978752 106.57300583 58.44978752 106.57300583 56.63313293 107.16555786 C53.46498571 108.19754142 50.29518501 109.22411606 47.12451172 110.24829102 C43.94663128 111.27647593 40.77135109 112.31259677 37.59570312 113.34765625 C30.73502496 115.57950693 23.87400717 117.8094845 17 120 C15.8089566 120.38093811 14.61791321 120.76187622 13.39077759 121.15435791 C11.64333755 121.70467682 11.64333755 121.70467682 9.8605957 122.26611328 C8.28203545 122.76535812 8.28203545 122.76535812 6.67158508 123.27468872 C4 124 4 124 1 124 C1 149.41 1 174.82 1 201 C-4.61904762 195.38095238 -4.61904762 195.38095238 -6.62109375 192.4609375 C-7.07411865 191.80810791 -7.52714355 191.15527832 -7.99389648 190.48266602 C-8.47028564 189.78713623 -8.9466748 189.09160645 -9.4375 188.375 C-14.40688361 181.22640353 -19.4980843 174.18275312 -24.69677734 167.19921875 C-27.7283759 163.11793024 -30.70618552 159.01135598 -33.6015625 154.83203125 C-34.18301025 154.00050537 -34.76445801 153.16897949 -35.36352539 152.31225586 C-36.47093735 150.72362335 -37.56709588 149.12706832 -38.65014648 147.52172852 C-39.39760132 146.45523071 -39.39760132 146.45523071 -40.16015625 145.3671875 C-40.80416382 144.42528564 -40.80416382 144.42528564 -41.46118164 143.46435547 C-43.57486 141.45295727 -45.11594006 141.33253919 -48 141 C-50.67231338 141.49548144 -50.67231338 141.49548144 -53.42602539 142.4753418 C-55.01907249 142.99664925 -55.01907249 142.99664925 -56.64430237 143.52848816 C-57.78390915 143.91482925 -58.92351593 144.30117035 -60.09765625 144.69921875 C-61.2829039 145.09067581 -62.46815155 145.48213287 -63.6893158 145.88545227 C-66.84244035 146.92924121 -69.99177815 147.98320923 -73.13977051 149.04229736 C-76.30323175 150.10384739 -79.47116114 151.1517659 -82.63867188 152.20117188 C-87.31742565 153.75339098 -91.99417108 155.31133499 -96.66821289 156.87768555 C-97.71308868 157.22721283 -98.75796448 157.57674011 -99.83450317 157.93685913 C-102.02745449 158.6733679 -104.21864915 159.41512 -106.40841675 160.16104126 C-107.49107819 160.52789032 -108.57373962 160.89473938 -109.68920898 161.27270508 C-110.66220444 161.60458328 -111.63519989 161.93646149 -112.63768005 162.27839661 C-115 163 -115 163 -117 163 C-115.73424249 160.35601338 -114.36324713 157.95132423 -112.671875 155.55859375 C-112.20918213 154.9025415 -111.74648926 154.24648926 -111.26977539 153.57055664 C-110.76824951 152.86664795 -110.26672363 152.16273926 -109.75 151.4375 C-109.22204834 150.69298584 -108.69409668 149.94847168 -108.15014648 149.18139648 C-103.60759747 142.80030738 -98.96982318 136.49119466 -94.31054688 130.19506836 C-90.08867681 124.48839799 -85.90538153 118.75526464 -81.75 113 C-81.20093994 112.24017822 -80.65187988 111.48035645 -80.08618164 110.69750977 C-75.85383227 105.74392075 -75.85383227 105.74392075 -74.21972656 100.04345703 C-75.06478508 97.83033444 -76.07804986 96.2097271 -77.484375 94.3046875 C-78.00056396 93.59836182 -78.51675293 92.89203613 -79.04858398 92.16430664 C-79.61005127 91.40883545 -80.17151855 90.65336426 -80.75 89.875 C-81.94420598 88.24623712 -83.13821093 86.61732683 -84.33203125 84.98828125 C-85.24976318 83.74232178 -85.24976318 83.74232178 -86.18603516 82.47119141 C-88.96337469 78.68758027 -91.6980941 74.87360876 -94.4375 71.0625 C-99.70208744 63.7548781 -105.03746462 56.50097591 -110.41967773 49.27954102 C-113.13929127 45.6124645 -115.75615672 41.98640243 -118 38 C-112.17876919 39.62323261 -106.42412167 41.4260505 -100.66796875 43.265625 C-99.18203972 43.73944611 -99.18203972 43.73944611 -97.66609192 44.22283936 C-95.5706025 44.89136075 -93.47528428 45.56041901 -91.38012695 46.22998047 C-88.23636101 47.23438929 -85.09185701 48.23646015 -81.94726562 49.23828125 C-71.71974446 52.50166827 -61.50193274 55.78352707 -51.34477234 59.26104736 C-47.75353366 60.5515859 -47.75353366 60.5515859 -44 61 C-42.69901671 59.58665028 -42.69901671 59.58665028 -41.41796875 57.6953125 C-40.90500244 56.97609619 -40.39203613 56.25687988 -39.86352539 55.51586914 C-39.03389282 54.33238892 -39.03389282 54.33238892 -38.1875 53.125 C-37.00274187 51.45953745 -35.81784222 49.79417557 -34.6328125 48.12890625 C-34.02727539 47.27312988 -33.42173828 46.41735352 -32.79785156 45.53564453 C-30.07487929 41.69523307 -27.32006042 37.87811514 -24.5625 34.0625 C-24.03624023 33.33272949 -23.50998047 32.60295898 -22.96777344 31.85107422 C-18.25077486 25.31995505 -13.47133095 18.83543621 -8.66821289 12.36743164 C-6.25418878 9.10749456 -3.8726741 5.85393896 -1.66015625 2.453125 C-1.11230469 1.64359375 -0.56445312 0.8340625 0 0 Z " fill="#D21134" transform="translate(758,326)"/>
</svg>
